<?xml version="1.0" encoding="utf-8"?>
<!-- Generator: Adobe Illustrator 24.0.1, SVG Export Plug-In . SVG Version: 6.00 Build 0)  -->
<svg version="1.1" id="Capa_1" xmlns="http://www.w3.org/2000/svg" xmlns:xlink="http://www.w3.org/1999/xlink" x="0px" y="0px"
	 viewBox="0 0 5688 4000" style="enable-background:new 0 0 5688 4000;" xml:space="preserve">
<style type="text/css">
	.st0{fill:#FFFFFF;}
	.st1{font-family:'Arial-BoldMT';}
	.st2{font-size:122.232px;}
	.st3{font-size:88.896px;}
	.st4{font-size:122.2255px;}
	.st5{font-size:88.8806px;}
	.st6{font-size:88.8808px;}
	.st7{font-size:55.56px;}
	.st8{font-size:66.6641px;}
	.st9{font-size:66.6696px;}
</style>
<g id="BOGUSAQUEN_1_">
	<path id="BOGUSAQUEN" d="M560.7,83.7c1.7-2.7,3.6-5.4,5.1-8.2c2.5-4.8,6-6,11.3-5.2c10.3,1.6,20.8,3.7,31.3,1.3
		c12.5,1.7,25.1,3.5,37.6,5.1c5.9,0.8,11.9,1.1,17.9,2c7.4,1.2,9.4,3.5,8.9,10.5c-0.4,5.3-1.3,10.6-2.2,15.8
		c-0.8,4.6-1.9,9.1-2.7,13.7c-2.4,14.7-3.3,18.8,14.7,20.2c15.2,1.2,30.3,4.4,45.5,6.5c8.5,1.2,14.4,5.2,19.3,12.4
		c15.7,23.1,32.3,45.7,48,68.8c5.2,7.6,11.2,12.6,20.4,14.4c22.2,4.4,44.3,9.2,66.5,13.9c2,0.4,3.9,0.7,5.9,0.8
		c4.9,0.4,7.8-2.2,7.3-7c-1-9.9-2.1-19.9-3.6-29.7c-5.8-37.5-6.4-29.2,21.2-47.4c19.5-12.8,39.3-25,58.8-37.8
		c7.1-4.7,13.8-6.3,22.5-3.9c14.8,4,30,6.1,45,9.3c11.6,2.4,13.1,4.4,12.3,16.2c-1.6,21.9-3.5,43.8-5.2,65.7c-0.3,4-0.8,8-0.8,11.9
		c0,3.7,2.2,6.2,5.8,7.1c2.6,0.6,5.3,1,7.9,1.1c9.9,0.5,20.6,4.9,29.5,0.1c8.3-4.4,9.4-15.5,13.2-23.8c9.5-20.5,18.7-41.2,28.1-61.8
		c6.4-14,6.5-14.2,22.6-12.9c37.8,3.1,75.7,6.3,113.5,10c9.1,0.9,20.9-2.2,26.7,4.6c6.7,7.7,0.5,19-0.7,28.7
		c-3.6,29.1-7.9,58-11.9,87.1c-1,7.1,0.6,9.7,7.8,11.5c11,2.7,22.1,4.8,33.2,7c21.5,4.3,43.1,8.8,64.7,12.5
		c10.3,1.8,18.7,5.7,26.2,13.1c11.8,11.7,24.9,22.2,36.5,34.1c14.9,15.3,33.1,24.6,53.1,30.5c31.4,9.3,63.7,14.2,96.2,17.1
		c10.6,1,21.3,1.7,31.9,2.2c7.2,0.4,10-1.5,11.3-8.4c3.1-16.3,5.6-32.8,8.2-49.2c1.8-10.9,3.4-11.9,14.6-8.7
		c24.4,6.8,48.8,13.5,73.1,20.2c10.8,3,11.9,4,12.6,14.8c1,14.6,1.6,29.3,2.4,43.9c0.3,4.7,0.5,9.3,1,13.9c0.6,5.3,3.7,8.3,9.1,9
		c16.5,2.1,33,4.3,49.6,6.3c22.5,2.8,45,5.5,67.4,8.3c53.5,6.7,107,13.5,160.6,20.2c2.6,0.3,5.3,0.6,7.9,1c5.2,0.9,8.3,4,8.6,9.4
		c0.3,4.6,0.5,9.3,0.6,14c1.1,28.6,2.1,57.2,3.2,85.9c0.5,14.3,0.6,14.2,13.7,17.3c16.2,3.8,32.3,7.9,48.6,11.3
		c6.7,1.4,10.6,4.9,12.6,11.1c1.2,3.8,2.3,7.7,3.8,11.4c6.9,17.7,17.4,32.9,32.2,44.9c2.1,1.7,4.3,3.2,6.4,4.7
		c9.2,6.5,16.3,14.6,13.3,26.7c-3.2,12.8-9.9,23-24.3,26.3c-33.2,7.5-64.9,19.7-96.9,30.9c-41.4,14.4-63.3,45.1-69.3,87.3
		c-3.3,23.8-3.3,47.9,2.4,71.5c1.9,8.1,0.1,14.2-4.5,20.4c-8.2,11.3-16.1,22.9-24.1,34.4c-24,34.4-47.9,68.9-71.9,103.4
		c-2.3,3.3-4.5,6.6-7,9.7c-2.7,3.5-6.1,4.6-10.5,3.2c-13.3-4.2-26.7-8.4-40.1-12.3c-114.8-34.2-229.6-68.3-344.4-102.6
		c-89.3-26.7-178.4-53.6-267.7-80.4c-89.2-26.7-178.5-53.3-267.8-79.9c-102-30.5-204-60.9-306-91.4
		c-103.3-30.8-206.6-61.6-309.8-92.5c-40.2-12-80.3-24.3-120.4-36.3c-3.8-1.1-7.8-1.6-11.7-2.4c-5-5.3-5.4-11.7-5-18.5
		c1.2-23.2,2.1-46.3,3-69.5c0.9-22.5,3.7-44.9,1.5-67.4c-5.2-17.7-0.3-35.5,0.2-53.2c0.8-29.1,3.1-58.1,5.7-87
		c0.7-8.2,4.6-9.3,11.5-9.7c50.2-3,100.6-3.2,150.8-6c17.5-1,32.1,7.2,47.3,13.3c10.9,4.4,21.6,9.8,32,15.6
		c12.2,9.4,26.9,14.2,40.1,21.6c4,2.2,7.5-0.2,8-5.5c1.5-15.9,2.8-31.8,4-47.7c0.6-8.6,1-17.3,1.1-25.9c0.3-27.5,5.1-54.1,13.6-80.2
		C541,147,550.7,115.4,560.7,83.7z"/>
	<text transform="matrix(0.9998 0 0 1 859.0181 619.7014)" class="st0 st1 st2">USAQUÉN</text>
</g>
<g id="BOGSUBA_1_">
	<path id="BOGSUBA" d="M212.6,1454.4c-0.2-4.6-0.1-8.9,5.1-11.2c1.5-0.7,2.5-2.7,3.7-4c19.2-10.6,38.5-21,57.6-31.9
		c70-39.8,140.1-79.6,209.9-119.9c11-6.4,21.5-8.2,34.1-6.9c64.9,6.7,130,12.4,194.9,18.7c46.4,4.5,92.8,9.5,139.2,14.2
		c21.9,2.2,43.8,4.3,65.6,6.3c8.8,0.8,10.3-1.5,7-10.4c-8-21.9-16.4-43.6-24-65.6c-2.5-7.3-6.4-13-12-18
		c-21.3-19.2-42.6-38.3-63.6-57.7c-6.1-5.6-12.6-9.1-21.1-10c-23.2-2.6-46.2-6-69.4-9c-54.8-7-109.7-14-164.5-20.9
		c-36.3-4.6-72.7-8.9-109.1-13.3c-15.9-1.9-31.7-4.1-47.6-5.8c-7.8-0.9-13.6-4.2-18.6-10.2c-27.5-33.4-55.2-66.7-83-99.9
		c-4.6-5.5-6.4-11.3-5.5-18.4c2.2-17.8,3.9-35.7,6.1-53.6c4.7-38.3,9.7-76.6,14.3-115c4.6-38.3,8.8-76.7,13.2-115.1
		c0.4-3.3,0.7-6.6,1.4-9.9c1.4-7.1,4.1-8.9,11.2-6.9c30.1,8.5,60.2,17.1,90.2,25.8c80.5,23.4,161,46.8,241.5,70.2
		c87.5,25.4,175.1,50.9,262.6,76.2c92,26.6,184.1,53.1,276.1,79.7c73.5,21.3,146.9,42.7,220.4,64.1c72.8,21.1,145.7,42.2,218.6,63.3
		c39.6,11.5,79.3,22.9,118.9,34.4c1.3,0.4,2.6,0.6,3.8,1.1c10.1,3.4,11.4,5.1,10.6,15.9c-3.1,42.5-6.4,85-9.7,127.5
		c-4.7,61.1-9.4,122.2-14.2,183.2c-0.9,11.9-2.3,23.9-3.2,35.8c-0.6,8.4,0.6,10.4,8.5,13.4c19.9,7.6,39.9,15,59.8,22.4
		c5,1.8,10,3.4,13.8,7c-0.8,5-4.7,6.7-7.9,8.9c-45.8,30.9-91.8,61.6-137.4,92.9c-8.9,6.1-17.6,7.9-28,6.9
		c-63.7-5.8-127.4-11-191.1-17c-11.3-1.1-20.2,0.9-29.4,8c-119.2,91.9-238.7,183.5-358.2,275.2c-90.9,69.8-181.8,139.5-272.7,209.3
		c-3.7,2.8-7.3,5.8-11.1,8.5c-5.1,3.7-7.7,8.4-9,14.8c-7.1,37.3-14.6,74.4-22.1,111.6c-1.6,7.8-3.2,15.7-5.2,23.4
		c-0.7,2.7-3.3,4.4-6.2,3.2c-16.6-6.9-33.1-13.9-49.6-21c-4-1.7-5.6-5.5-6.6-9.5c-3-13-6-25.9-9-38.9c-2.8-12.3-4.8-24.9-8.3-37
		c-3.6-12.4-4.1-24.9-4.2-37.5c-0.3-38,4-75.8,7.3-113.6c3.7-42.4,8.5-84.8,13.7-127.1c1.2-10.2-2.8-16.1-9.7-22.2
		c-42.9-38-85.6-76.2-128.3-114.4c-36.8-32.8-73.6-65.6-110.5-98.3c-14-12.5-12.3-12-25.9-0.8c-10.8,8.9-21.5,17.9-32.4,26.6
		c-8.1,6.5-9.6,6.3-16.6-1c-23.3-24.8-46.4-49.6-69.6-74.4c-35.9-38.5-71.8-77-107.7-115.4C217.7,1458.6,215.1,1456.6,212.6,1454.4z
		"/>
	<text transform="matrix(0.9998 0 0 1 799.8892 1552.592)" class="st0 st1 st2">SUBA</text>
</g>
<g id="BOGENGATIVA_1_">
	<path id="BOGENGATIVA" d="M1087.6,2665.9c-4.2-3.2-8.8-2.2-13.5-1.6c-12.5,1.7-23.7-2.3-34.5-7.8c-7.4-3.8-12.9-9.2-15.9-17.1
		c-13-34.2-25.2-68.7-35.2-103.9c-9.7-34.3-4.3-67.6,8.2-99.7c8.7-22.3,18.1-44.3,26.2-66.8c4.3-11.9,10-23.2,17.2-33.8
		c6.1-9,13.5-16.2,23.5-21c12.5-6.1,13.4-8.6,10.1-21.8c-4.7-18.8-12.1-36.6-19.4-54.5c-5-12.3-14.8-20.2-27.6-24.3
		c-9-2.9-18.1-4.1-27.5-4.3c-10.9-0.2-19.3,2.8-25.1,12.8c-4,6.9-9.8,12.6-16.6,17.1c-7.7,5.1-16.5,7.4-24.5,2.3
		c-23.3-14.9-49.6-18.6-76-22.4c-0.7-0.1-1.3-0.2-2-0.3c-10.2-1.7-12-4.1-10.1-14.9c1.7-9.8,3.9-19.6,5.7-29.4
		c3.6-19,7.5-37.9,10.7-56.9c1.9-11.1,6.8-19.1,16.2-26c133.7-98.2,267.1-196.8,400.6-295.2c67.5-49.8,135.1-99.7,202.6-149.5
		c3.8-2.8,7.7-5.3,11.2-8.4c6.6-5.7,13.6-6.3,22.3-5.2c55.5,7.4,111,14.1,166.5,21.1c6.6,0.8,13.3,1.6,19.7,3.1
		c9.8,2.2,17.7-0.2,25.9-6.3c41.1-30.6,82.7-60.7,124.1-91c9.7-7.1,19.3-14.3,29.1-21.2c8.2-5.8,10-5.7,16.9,1.6
		c17.9,18.8,35.7,37.7,53.5,56.6c118.2,125.7,236.4,251.4,354.6,377.1c19.2,20.4,18.3,17.7-5.6,29.9
		c-164.8,84.2-329.5,168.5-494.3,252.8c-3,1.5-6,2.9-8.9,4.5c-5,2.8-8.9,1.2-12.2-2.9c-4.2-5.2-8.4-10.3-12.6-15.5
		c-18.3-22.9-36.6-45.8-54.9-68.7c-2.5-3.1-5-6.2-7.8-9.1c-2.6-2.7-5.8-3.3-8.9-0.8c-3.6,2.9-7,6.1-10.4,9.3
		c-142,132-283.9,264.1-425.9,396.1c-20,18.6-40.1,37.1-60.1,55.7c-2.9,2.7-5.7,5.6-8.8,8.2c-4.3,3.7-4.4,7.6-1.5,12.3
		c9.8,15.9,19.4,31.9,29,47.9c12.5,20.8,13,15.5-2.1,33.6c-9.8,11.7-20.5,22.8-29.9,34.9c-6.5,8.5-13.7,9.2-22.7,5.9
		c-6.9-2.5-14-4.4-20.7-7.4c-10.7-4.9-13.1-1.7-14.5,7.7c-1.6,11.1-4.9,22-7.9,32.9c-5.2,18.7-18.8,28.5-36.6,33.3
		c-11.7,3.1-23.8,2.2-35.8,1.3c-3.5-0.3-6.4-1.9-8.7-4.4c-7.8-8.2-15.7-16.3-23.2-24.8c-3.9-4.4-1.9-8.4,4.5-9.2
		c13.9-1.8,27.8-3.3,41.6-5.3c11.2-1.6,11.3-1.7,13.4-13.5c1.7-9.8,3.1-19.7,4.7-29.6C1088.4,2721.7,1094.6,2694.1,1087.6,2665.9z"
		/>
	<text transform="matrix(0.9998 0 0 1 1336.4009 1993.342)" class="st0 st1 st2">ENGATIVÁ</text>
</g>
<g id="BOGFONTIBON_1_">
	<path id="BOGFONTIBON" d="M2124.5,2956.5c0.3,0-1.8,0.1-3.7-0.3c-24.1-4.4-44.6,3.9-63.5,17.8c-5.4,3.9-10.4,8.3-15.6,12.5
		c-14.8,12.1-25.4,26.5-28.9,46.2c-3.3,18.3-9.5,36-13.9,54.1c-2.7,11-8.2,18.5-18.6,24.2c-45,24.5-89.5,50.1-135.8,72.1
		c-12.6,6-25.7,10.8-38.6,16.2c-8.2,3.4-16.8,3.8-25.5,3.9c-15,0.1-25.5-6.4-30.7-20.8c-7.2-19.6-18.3-36.9-30.4-53.7
		c-8.6-11.9-18.4-22.8-28.8-33.1c-17.6-17.3-38.5-22.6-62.5-17.1c-11.1,2.6-21.6,6.5-31.7,11.7c-10.2,5.3-18.9,11.9-25.8,21.4
		c-8.1,11.3-17.2,22.1-28.1,31c-20.1,16.4-29.9,13.6-36.7-10.8c-4-14.2-8.8-27.9-16.6-40.5c-11.1-17.9-25.7-30-48.1-31
		c-11.9-0.6-23.8-2.8-35.1-7c-8.2-3.1-15.9-7-22.1-13.1c-9.1-9-13.2-19.8-10.5-32.7c0.3-1.3,0.7-2.6,1.1-3.8
		c7.7-23.8,1.5-44.7-13.7-63.4c-5.9-7.2-12.6-13.8-19.5-19.9c-5.4-4.8-8-10.1-8-17.3c0.1-17.3-1-34.7,2.1-51.8
		c6-32.6-9.3-52.1-38.9-62.6c-5-1.8-10.3-3-15.1-5.1c-29.4-13.2-32.8-29-22.6-54.1c4.5-11.2,10.8-21.4,17.4-31.4
		c5.8-8.8,5.7-9.5-1.4-17c-5-5.3-10.3-10.4-15.3-15.8c-2-2.1-2.1-5-0.1-7.2c3.5-4,7.2-7.8,10.9-11.6
		c134.9-137.3,269.8-274.7,404.9-411.9c20.6-20.9,15.8-22.1,36.7,0.9c21.9,24.2,43.7,48.5,65.7,72.6c7.5,8.2,8.4,8.4,18.9,3.2
		c57.9-28.5,115.8-57.2,173.6-85.8c193.9-95.9,387.8-191.8,581.7-287.7c24.5-12.1,49-24.1,73.4-36.2c3.6-1.8,7.3-3.3,10.8-5.3
		c8.1-4.4,11.6-2.6,14.3,6.6c2,7,5.1,13.7,7.7,20.6c6.2,16.8,12.6,33.7,18.6,50.6c4.8,13.2,4.8,13.4-6.2,21.6
		c-31.5,23.6-63,47-94.5,70.5c-29.9,22.3-59.8,44.5-89.7,66.8c-3.7,2.8-7.4,5.7-10.9,8.7c-2.2,1.9-2.8,4.6-0.8,7
		c3.4,4.1,7,8,10.6,11.9c39.4,42.5,78.9,85,118.3,127.4c3.6,3.9,7.4,7.7,10.8,11.8c3.2,3.7,2.5,6.9-2.1,9.7
		c-5.7,3.5-11.5,6.7-17.3,10c-121.1,68.6-242.1,137.3-363.3,205.7c-14.6,8.2-28.3,17.4-40.7,28.7c-11.3,10.3-23.1,20.2-34.7,30.2
		c-13.3,11.5-24,25.1-31.7,40.7c-10.6,21.7-14.2,43.8-4.6,67.4c6.7,16.6,11.9,33.9,14,51.9c1.4,11.7-0.4,21.8-7.4,32
		c-10.9,15.9-19.8,33.1-29.8,49.6c-3.9,6.4-3.9,12.4-0.8,18.9c7.3,15.1,16.6,28.8,27,41.9c9.1,11.5,18,23.1,26.8,34.8
		c4.1,5.4,6.7,11.4,6.5,18.5c-0.2,7.1-2.8,11.1-9.4,13.8C2140.1,2956,2133.6,2956.9,2124.5,2956.5z"/>
	<text transform="matrix(0.9998 0 0 1 1400.8423 2802.8928)" class="st0 st1 st2">FONTIBÓN</text>
</g>
<g id="BOGKENNEDY_1_">
	<path id="BOGKENNEDY" d="M2927.3,3569.2c1.7,8.2,7.7,13.8,12.1,20.4c8.1,12.2,6.5,22.6-5.4,31.1c-12.7,9-27.3,13.6-42.6,16
		c-6.1,1-10-2.3-13.8-6.4c-14.8-16.1-23.7-35.3-28.7-56.3c-6.3-26.5-4.4-53,0.9-79.3c1.3-6.4,3.8-12.8,6.8-18.7
		c8.3-16.7,16.9-33.2,25.7-49.6c16.5-30.6,10.3-41.6-20.1-55.6c-8.8-4-19.4-4.3-29.3-5.7c-6.6-0.9-13.3-1.1-19.9-1.2
		c-15.7-0.2-28.5-6.8-38.6-18.2c-7.5-8.4-14.4-17.5-20.8-26.8c-11.4-16.4-22.2-33.2-33.3-49.8c-5.2-7.8-10.8-15.2-17.7-21.5
		c-17-15.4-36-19.7-57.1-9.8c-24.7,11.6-49.2,23.9-70.5,41.3c-24.8,20.4-53.2,29-85,29.5c-16.3,0.2-30-4.8-42.4-14.6
		c-7.9-6.2-14.7-13.5-21.1-21.2c-11.2-13.3-20.7-27.8-29.2-42.9c-6.8-12.1-5.4-19.8,5.5-27.5c6.4-4.5,13.8-8.1,21.2-10.9
		c20.5-7.9,41.9-12.8,63.5-17.2c4.6-0.9,9.2-1.4,13.8-2.5c7.3-1.7,8.7-4.6,5.2-11.4c-13-24.8-26.1-49.4-39.2-74.1
		c-2.2-4.1-4.5-8.2-6.5-12.4c-3.1-6.5-2.7-9,3.4-13.7c21.6-16.7,43.3-33.3,65-49.8c18-13.7,36.1-27.4,54-41.2
		c7-5.4,6.5-7.7-1.9-12.2c-2.3-1.3-4.8-2.3-7.1-3.7c-3.5-2-4.3-5.3-2.1-8.4c4.3-5.9,8.7-11.9,13.7-17.1
		c11.1-11.6,14.3-25.3,11.7-40.6c-2.9-17-5.9-34.1-9.8-50.9c-5.6-24-13.7-47.3-23.2-70c-1.5-3.7-3.5-7.2-5.1-10.8
		c-7.4-15.8-20.1-22.5-37.1-21.6c-9.3,0.5-18.6,1.9-27.9,2.3c-9.3,0.4-18.6,0.2-28,0.2c-4.7,0-9.1-1.4-13.1-4.1
		c-5.7-3.9-7.3-10.1-3.4-15.5c3.5-4.8,7.9-9,11.6-13.7c4.5-5.7,8.9-11.7,10.2-19.2c1.6-8.9-2-14.7-10.6-15.8
		c-4.5-0.6-9.3-0.2-13.9,0.2c-14.1,1.4-27.1,6.5-40,12c-5.5,2.4-11.1,4.6-16.5,7c-13.1,5.8-13.2,5.9-22-3.5
		c-34.7-36.9-69.3-73.8-103.8-110.8c-2.3-2.4-4.3-5-6.3-7.7c-1.4-1.9-0.7-4.2,0.8-5.3c3.7-2.8,7.7-5.2,11.7-7.5
		c104-60.9,208-121.7,312-182.6c17.8-10.4,35.8-20.5,53.3-31.4c8-5,14.3-4.2,21.9,0.7c40.2,26.1,80.6,51.9,121,77.7
		c44.3,28.4,88.9,56.3,132.7,85.4c11.9,7.9,22.3,8.6,35.3,4.4c37.3-12.2,74.9-23.4,112.4-34.9c8.3-2.5,10.1-1.2,11.6,7.9
		c2.4,14.4,5.2,28.8,6.9,43.4c1.5,12.8,7.2,21.6,18.1,29.1c47.6,33,94.6,66.9,141.8,100.5c31.5,22.4,62.8,45,94.5,67
		c8.3,5.8,10.3,11.9,9,21.7c-7.3,56.8-14.3,113.6-20.5,170.5c-1.2,11.2-5.2,18.3-14.5,24c-14.8,9-28.8,19.3-41.9,30.6
		c-14.2,12.2-27,25.7-37.4,41.4c-9.6,14.6-20.9,27.6-35.5,37.5c-5.7,3.9-9.7,9-13.2,14.7c-15,24.4-29.3,49.1-42.1,74.8
		c-15.8,31.6-16.8,63.8-7.4,97c4.8,16.7,11.9,32.5,20.5,47.5c3,5.3,5.7,10.3,5.6,16.7c-0.3,22-0.4,44-6.7,65.3
		c-1.7,5.7-3.6,11.5-6.3,16.7c-3.8,7.3-9.4,12.9-17.9,14.7c-21.8,4.7-40.9,15.5-60.5,25.5c-13.1,6.6-26.2,13-39.4,19.3
		c-8.4,4-17.3,7.9-26.6,7.9c-12,0-20.2,6.1-27.6,13.9c-15.2,16-28.7,33.2-39,52.8c-2.2,4.4-4.7,8.6-7.7,12.4l0,0
		C2919.4,3540,2920.7,3554.9,2927.3,3569.2z"/>
	<text transform="matrix(0.9998 0 0 1 2611.9595 2894.1975)" class="st0 st1 st2">KENNEDY</text>
</g>
<g id="BOGBOSA_1_">
	<path id="BOGBOSA" d="M3127.9,3924.8c-5.1,3.7-10.6,4.6-16.9,4c-7.9-0.8-15.8-2.5-23.7-0.1c-72.6-9.3-145.2-18.6-217.8-28
		c-49.5-6.4-99-13.1-148.5-19.6c-17.8-2.3-35.7-4.5-53.5-6.9c-13.3-1.8-13.5-1.8-16.3-15.5c-2.3-11.1-4.4-22.2-6.4-33.3
		c-9.8-54.3-19.6-108.6-29.4-163c-0.4-2-0.6-4-1.4-5.8c-1.4-3.5-4.2-5.1-7.9-4.1c-2.5,0.7-4.9,2.1-7.2,3.3
		c-29.9,14.5-59.9,29-89.7,43.6c-2.3,1.1-4.2,3-6.3,4.6c-9.1,3.9-18.2,7.9-27.4,11.6c-3.4,1.4-6.9-0.9-6.8-4.6
		c0.6-24.6,1.3-49.2,1.9-73.9c0.2-6,3.3-9.7,8.6-12.2c17.6-7.9,35.2-15.9,52.7-23.9c21.2-9.7,42.4-19.2,63.5-29.1
		c8.8-4.1,9.7-5.6,8.4-15.6c-4.4-34.3-9-68.6-13.6-102.9c-2.4-18.5-5-36.9-7.3-55.4c-0.8-6.8,2.3-9.9,9.3-9
		c19.2,2.5,38.5,2.9,57.8,2.7c10.7-0.1,21.1-1,31.3-5c10.6-4.1,22.1-5.1,33.5-4.5c24.6,1.4,49.2,2.9,73.7,4.8
		c12.6,1,25.1,2.9,37.7,4.6c4.6,0.6,9.3,1.3,13.7,2.6c9.2,2.8,14.4,9.1,14.9,19c0.4,7.4-0.5,14.4-3.6,21.4c-5.3,12.2-10,24.6-15,37
		c-14.7,37-21.7,75.3-20.8,115.1c0.5,21.3,6.9,40.5,18.9,58c3,4.4,6.6,8.4,9.3,13c8.4,14.1,21.6,19.2,37.1,19.5
		c19,0.3,36.9-4.1,53.9-12.5c6.2-3.1,10.7-7.6,13.9-13.8c7.8-15,12.5-31.1,14.7-47.4c1.7-12.5-3.4-24.8-11.2-35.3
		c-10.1-12.8-27.5-23.4-12.9-43.5c69-38.9,138-77.8,207-116.8c3.5-2,6.8-4.2,10.5-5.8c8.1-3.6,11.6-10.2,13.3-18.6
		c6.5-30.6,13-61.2,20.1-91.6c1.7-7.2,0.8-13.1-3.1-18.9c-6.7-9.9-13.4-19.9-20.6-29.4c-4.8-6.4-5.9-12.4-4.2-20.3
		c5.4-25.4,9.9-50.9,14.4-76.5c1.9-10.9,6.2-19.9,14.2-27.8c17.4-17.4,34-35.6,51.2-53.3c7.2-7.4,12.3-15.1,13-26
		c0.6-10.6,3.2-21,5-31.5c0.8-4.5,3.6-7.2,8.1-7.2c6.7-0.1,13.3,0.3,20,0.6c19.6,0.7,20.5,0.2,17,20.1c-11.6,64.9-22,129.9-33,194.9
		c-9.8,58.4-19.6,116.8-29.8,175.2c-4.4,24.9-9.5,49.7-14.9,74.4c-2.9,13.4-2.5,25.7,2.7,38.9c12.1,31,22.6,62.5,33.8,93.9
		c0.9,2.5,1.7,5,2.5,7.6c1.4,4.3,0.2,8-3.4,10.6c-4.9,3.5-9.7,7-14.9,10c-8.6,4.8-13.4,12-16.8,21.3
		c-15.9,43.8-32.4,87.3-48.8,130.9C3164.5,3827.7,3146.2,3876.2,3127.9,3924.8z"/>
	<text transform="matrix(0.9998 0 0 1 2723.0435 3818.342)" class="st0 st1 st2">BOSA</text>
</g>
<g id="BOGCIUDADBOLIVAR_1_">
	<path id="BOGCIUDADBOLIVAR" d="M4108.3,3128.1c-4.6-4.8-9.6-2.7-14-3.3c-12-1.6-17.7-6.6-20.8-18.2c-0.5-1.9-1.1-3.9-1.1-5.9
		c-0.8-21.7-15.2-34.6-30.2-47.2c-12.6-10.6-27.8-11.6-43.3-11.8c-7.9-0.1-14.2,2.6-19.8,7.9c-11.2,10.5-21.4,21.9-31,33.9
		c-4,5-5.2,10.5-5.2,16.7c0,14.2,4.7,27.5,8,41c0.9,3.9,2.6,7.6,3.6,11.4c2.1,8.1-0.6,13.6-8.5,14.9c-23.2,3.7-43.8-0.9-59.1-20.3
		c-10.9-13.9-17.4-29.7-20.9-47c-1.8-9.1-3.8-18.3-6.8-27.1c-6.5-19.5-14.8-23.8-30.5-11.9c-15.7,11.8-32.3,13.9-50.5,13.6
		c-12-0.2-24,0.5-35.9,1.2c-9.5,0.5-10.9,2-13.2,11.6c-0.5,1.9-0.9,3.9-1.1,5.9c-3.5,36.9-10.4,25.3,18.7,50.1
		c8.6,7.3,17,15,26,21.8c7.6,5.7,10.8,12.3,10.3,22.1c-1.1,21.9-0.7,44-1.9,65.9c-0.6,11.8,1.4,22.4,6.9,32.6
		c7.5,14.1,14.3,28.6,22.5,42.3c8,13.5,11.7,28.2,15.4,43c1.5,6,0.2,11.7-2.6,17.4c-9.2,18.4-22.4,33-40,43.5
		c-20.2,12-52.5,7.8-68.8-8.5c-3.7-3.7-3.9-8.3-4-12.9c-0.3-16.6-0.4-33.3-0.6-49.9c0-4,0.1-8-0.1-12c-0.4-10.7-1.5-12.1-11.7-15.6
		c-5.8-2-8.1-1.5-11.7,4c-9.2,13.9-18.1,27.9-27.1,41.9c-3.2,5-6.7,9.9-9.7,15.1c-3,5.2-7.2,7.6-13.2,6.8c-11.9-1.6-23.8-3.2-35.6-5
		c-3.8-0.6-5.8-3.4-5.3-7.1c1.1-7.2-2.8-9.5-8.9-10.1c-10.6-1-21.2-2.4-31.8-3c-36.6-2.1-72.9-7.1-109.7-6.2
		c-9,0.2-14.9,2.4-19.3,10.6c-7.6,14-20.4,22.4-34.9,28.4c-7.8,3.2-9.2,5.8-8,13.7c2.6,17.4,6.9,34,22.4,45.2
		c2.6,1.9,4.8,4.6,6.8,7.2c2.6,3.3,0.6,8.6-3.6,9.5c-3.2,0.7-6.6,1.1-9.9,1c-8.2-0.3-12.3,4.7-14.4,11.4c-3,9.5-5,19.3-7.9,28.9
		c-1.9,6.3-4.1,12.7-7.1,18.5c-3.2,6.1-9,9.7-15.3,12.3c-27.9,11.5-43.4,8.2-64.7-13.9c-3.7-3.8-7.2-7.9-10.7-11.9
		c-8.2-9.3-12.6-20.1-14.2-32.4c-2.2-16.8-0.3-33.2,2.8-49.6c10.8-56.2,21.5-112.4,32.2-168.6c6-31.4,12-62.7,18.1-94.1
		c0.8-3.9,1.7-7.8,2.7-11.7c1-3.7,3.7-5.5,7.4-5.4c4.7,0,9.3,0.3,14,0.8c43,4.7,86.1,9.4,129.1,14.1c4,0.4,7.9,1,11.9,1.1
		c5.7,0.1,8.2-2.1,9.3-8.1c2.2-13.1,4.3-26.3,6.4-39.4c5.3-33.5,11-67,15.7-100.6c1.4-9.8,5.2-14.9,14.8-18.5
		c62.3-23.3,124.3-47.4,186.5-71.1c152.3-58.1,304.5-116.2,456.8-174.3c36.7-14,73.1-28.5,110-42c10.4-3.8,15.1-9.5,15.4-20.3
		c0.2-10.6,1.6-21.2,2.2-31.9c0.5-8.3,3.9-13,12.6-15.3c31.5-8.4,62.8-17.6,94.2-26.4c25.6-7.2,51.2-14.5,76.9-21.6
		c5.1-1.4,10.3-2.4,15.6-3.4c2.1-0.4,3.6,1.3,4.4,3.2c0.4,1.2,0.5,2.6,0.5,3.9c-0.5,18-1.2,35.9-1.7,53.9
		c-0.2,6.6-2.7,11.2-8.7,14.4c-12.9,6.9-25.6,14.2-38.4,21.3c-29.7,16.4-59.5,32.8-89.1,49.3c-6.4,3.6-12.7,7.4-18.6,11.6
		c-7.2,5.1-12.8,11.9-15.2,20.5c-3,10.8-2,20.1,7,29.1c23.1,23.1,46.3,46,70.9,67.5c8.6,7.4,16.7,15.2,24.3,23.6
		c25.2,27.9,54,51.4,86.2,70.7c5.1,3.1,10.2,6.3,15.1,9.8c6.8,4.9,8.4,11.8,6,19.5c-3.2,10.4-9.2,19.1-16.3,27.2
		c-2.4,2.7-5.6,3.5-9,3.3c-7.3-0.4-14.6-1.1-21.9-1.4c-5.6-0.2-8.9,2.3-10.4,7.4c-0.9,3.2-1.3,6.5-2,9.8c-2.3,10.6-2.8,15,10.1,19.4
		c7.8,2.7,18.3,2.3,22.5,11.1c3.5,7.3,0.7,15.8,0.4,23.7c-1,27.6,2.7,20.8-18.4,41c-14.4,13.8-29.3,27.2-43.5,41.3
		c-6.7,6.6-13.8,9.3-23.2,8.6c-30.6-2.3-61.2-4-91.7-6c-3.3-0.2-6.6-0.6-10-0.8c-5.3-0.4-9,2.1-11,6.8c-2.3,5.5-4,11.3-6.3,16.8
		c-2.1,4.9-4.9,5.9-9.3,3.8c-14.4-7-28.7-14.1-43.1-21c-6.6-3.2-11-7.3-10-15.4c0.3-2.6,0.1-5.4-0.4-7.9c-0.6-2.8-2.7-4.8-5.6-4.7
		c-19.3,0.7-38.6,1.6-57.9,2.5c-3.6,0.2-6.7,2.4-7,6c-0.8,10.6-1.3,21.2-1.4,31.9c0,3.8,3.3,5.8,6.8,5.8c16,0.2,32,0.1,48,0.2
		c21.5,0.1,19.7-2.2,28.7,19.5c7.4,17.8,14.2,35.9,19.4,54.5c2.2,7.8,3.7,15.6,3.7,23.6c0,10.9-6.7,17.4-17.5,17.1
		c-3.9-0.1-7.9-1.1-11.8-2c-11-2.8-21.4-7.1-31.6-12.1c-12.6-6.1-25.8-10.5-39.4-14.1c-7.3-1.9-12-1-17.1,5.5
		c-14.7,18.9-35.7,26.8-58.7,30.1c-13.9,2-24.5-4.1-33.1-14.5c-8.2-9.9-13.5-21.4-17.1-33.6c-8.7-29-11.9-58.6-8.9-88.9
		c0.7-7.5,2.7-14.3,6.9-20.6c5.2-7.7,13-11.2,21.6-13.3c4.5-1.1,9.2-1.2,13.8-1.9c3.6-0.5,6.1-2.7,7.2-6.1
		C4100.8,3151.5,4104.6,3139.5,4108.3,3128.1z"/>
	<text transform="matrix(0.9998 0 0 1 3709.2212 3015.5647)" class="st0 st1 st3">CIUDAD BOLÍVAR</text>
</g>
<g id="BOGTUNJUELITO_1_">
	<path id="BOGTUNJUELITO" d="M4195.4,2569.4c48,7.6,96,15.2,144,22.7c24.3,3.8,48.7,7.3,73,11.2c3.2,0.5,6.3,1.8,9.3,3.1
		c0.8,0.4,1.5,2.2,1.4,3.3c0,1.1-0.8,2.7-1.6,3c-3.1,1.1-6.3,2.1-9.5,2.7c-28.2,5.1-56.3,10.1-84.5,15c-14.4,2.5-28.9,4.8-43.3,7.5
		c-9.7,1.8-11.7,4.3-13,14.7c-1.4,10.6-3.3,21.1-3.9,31.7c-0.6,10.3-6,15-15.1,18.4c-33,12.4-65.7,25.5-98.6,38.2
		c-131.5,50.8-263,101.5-394.5,152.3c-86.2,33.3-172.4,66.7-258.6,100c-19.5,7.5-19.5,7.6-23.2,27.8c-6.6,36-13.2,72-19.8,108
		c-0.7,3.9-1.7,7.8-2.6,11.7c-0.9,3.8-3.6,5.3-7.2,5.6c-1.3,0.1-2.7-0.1-4-0.3c-36.3-4.6-72.7-9.2-109-13.8c-3.3-0.4-6.6-1-9.6-2.2
		c-1.5-0.6-3-2.7-3.5-4.4c-0.5-1.8,0.1-3.9,0.4-5.9c12.1-72.8,24.5-145.7,36.5-218.5c10.2-61.7,19.9-123.5,29.9-185.2
		c7.2-44,14.8-87.9,21.7-132c1.3-8,4.7-13.4,11.5-17.3c28.3-16.2,56.4-32.7,84.7-49c5.7-3.3,8-2.8,11.9,2.1
		c2.9,3.7,5.5,7.6,8.2,11.4c26.6,37.5,53.2,74.9,79.8,112.4c2.3,3.3,4.6,6.6,7.1,9.7c4.6,5.8,7,6.7,13.8,4.1
		c15.5-5.9,31-12.1,46.5-18.1c42.1-16.4,84.4-32.6,126.3-49.5c7.9-3.2,13.5-2.5,20.2,1.9c22.3,14.6,44.9,28.6,67.4,42.8
		c3.9,2.5,7.8,5,11.9,7.3c3.6,2.1,7.5,2.5,11.4,0.5c3.6-1.8,7.1-3.6,10.7-5.4c48.7-24.6,97.7-48.7,146-74
		c13.7-7.2,26.6-11.4,41.6-6.3c3.1,1.1,6.6,0.8,9.9,1.1C4144.2,2562.3,4170.1,2564.3,4195.4,2569.4z"/>
	<text transform="matrix(0.9998 0 0 1 3418.4946 2785.01)" class="st0 st1 st3">TUNJUELITO</text>
</g>
<g id="BOGCHAPINERO_1_">
	<path id="BOGCHAPINERO" d="M2975.8,1266.7c-4.6,63-12.8,131.7-18.2,150.9c-12.6-1.1-24.3-6.1-36.2-9.7
		c-75.7-23.1-151.3-46.5-227-69.8c-101.1-31.1-202.2-62.2-303.3-93.3c-115.7-35.5-231.5-71-347.2-106.5
		c-26.7-8.2-53.5-16.2-80.2-24.3c-3.8-1.2-7.6-2.5-11.3-3.9c-5.1-1.9-6.4-4.7-4.1-9c2.2-4.1,4.6-8.1,7-12.1
		c24.4-40.5,48.5-81.1,73.3-121.4c5.9-9.6,8.4-18.8,6.9-30.1c-3.4-25.3-1.4-50.5,2.8-75.6c1.7-9.9,4.7-19.4,8.9-28.5
		c8-17.6,21-29,40.3-32.3c15.1-2.6,30.2-5.3,45.4-6.7c36.5-3.3,73.1-5.6,109.7-6.4c15.5-0.4,30.6,1.5,45.5,5.1
		c8.5,2,16.5,5.2,24,9.5c20.8,12,31.5,29.9,31.8,54c0.1,9.4-0.6,18.6-3,27.7c-1.1,4.4,1.9,8,6.4,8.3c6.6,0.4,13.3,0.1,19.9,0.2
		c36.3,0.3,54,15.6,59.2,51.4c0.5,3.3,0.4,6.6,0.7,10c0.9,10.1,1.2,10.5,12,11.8c46.9,5.7,93.9,11.3,140.8,16.9c2,0.2,4,0.4,6,0.7
		c35.2,4.7,35.3,4.6,59.8,30.6c8.7,9.2,17.2,18.5,25.4,28.1c12.7,14.8,28.3,21.7,47.9,17.9c0.7-0.1,1.3-0.1,2-0.3
		c26.6-7.3,45,4.8,59.9,25.2c7.1,9.7,12.7,20.3,17.6,31.3c11.1,24.6,27.8,43.7,52.9,54.6c33.7,11.6,68.5,3.8,102.7,6
		c7.3,0.5,14.6,0,22,0.1c5,0.1,10,0.8,8.7,7.6C2979.5,1211.5,2979.4,1239.3,2975.8,1266.7z"/>
	<text transform="matrix(0.9606 0.2772 -0.2772 0.9608 2103.8503 1079.5322)" class="st0 st1 st4">CHAPINERO</text>
</g>
<g id="BOGBARRIOSUNIDOS_1_">
	<path id="BOGBARRIOSUNIDOS" d="M2484.1,1327.8c-2.8,27.5-5.7,56.6-8.8,85.7c-3.1,29.8-7.2,59.5-9.3,89.3
		c-0.9,12.7-6.3,18.8-17.6,23c-25.5,9.6-50.6,20.3-75.8,30.5c-81.9,33.3-163.8,66.7-245.8,99.8c-20.9,8.4-15.7,10.5-34.6-5.7
		c-64.2-55-128.5-109.9-192.6-165c-9.2-7.9-18.8-14.1-31.1-16.8c-18.8-4.1-37.2-10-55.8-15.3c-9.9-2.8-11.5-5.3-10.5-15.8
		c8.1-83.5,16.2-166.9,24.2-250.4c1.6-16.6,2.9-33.1,4.8-49.7c0.9-7.7,3.2-9.1,10.8-7c24.4,6.7,48.7,13.7,73,20.6
		c74.8,21.4,149.6,42.7,224.4,64.1c60.7,17.4,121.4,34.8,182.2,52.3c48.6,13.9,97.1,27.9,145.7,41.9c2.6,0.7,5.2,1.2,7.7,2
		C2483.5,1314.4,2484.9,1316.7,2484.1,1327.8z"/>
	<text transform="matrix(0.9998 0 0 1 1924.0962 1404.4514)" class="st0 st1 st3">BARRIOS </text>
	<text transform="matrix(0.9998 0 0 1 1968.5337 1511.1272)" class="st0 st1 st3">UNIDOS</text>
</g>
<g id="BOGTEUSAQUILLO_1_">
	<path id="BOGTEUSAQUILLO" d="M2130.2,1712.2c4.8-4.8,11.2-6.8,17.2-9.6c111.2-52.8,222.5-105.6,333.7-158.3
		c2.4-1.1,4.8-2.2,7.3-3.2c8.9-3.4,13.5-9.7,14.6-19.3c2.1-17.8,4.8-35.6,7.3-53.4c5.9-41.5,11.7-83,17.7-124.6c0.3-2,0.6-4,1.4-5.8
		c1.1-2.5,3.1-4.5,6.1-4.1c3.3,0.5,6.4,1.5,9.6,2.4c53.7,15.5,107.4,30.9,161.1,46.5c81.1,23.6,162.2,47.3,243.3,71
		c1.9,0.6,3.9,0.8,5.8,1.5c4.2,1.7,6.3,5,6,9.4c-0.6,8.6-1.3,17.3-2.3,25.9c-4.7,39-9.6,78-14.3,117c-4.1,34.4-8.8,68.7-11.7,103.2
		c-1,12.1-6.2,17.4-16.3,21.8c-26.8,11.7-53.2,24.4-79.9,36.6c-144.7,65.9-289.5,131.9-434.3,197.6c-25.1,11.4-18.7,14.5-39.7-7.5
		c-74.1-77.5-148.2-155.1-222.2-232.7C2136.6,1722.2,2131,1719,2130.2,1712.2z"/>
	<text transform="matrix(0.9998 0 0 1 2245.0454 1732.2327)" class="st0 st1 st3">TEUSAQUILLO</text>
</g>
<g id="BOGSANTAFE_1_">
	<path id="BOGSANTAFE" d="M3820,1608.3c-1.2,11.9-2.7,23.8-3.6,35.7c-0.5,7.2-3.7,12.3-9.2,16.8c-19.2,15.5-37.9,31.5-57.2,46.8
		c-29.2,23.2-59.3,45.3-87.9,69.2c-25.7,21.5-55.4,33.8-86.8,43.3c-4.5,1.4-9,2.5-13.5,3.7c-31.4,7.9-60.5,4.2-87.3-15.4
		c-20-14.6-38.4-30.8-55.6-48.5c-66.4-68.3-133.8-135.5-202.3-201.7c-11.5-11.1-23.8-21.3-36.6-30.9c-21.5-16-45.1-21.9-71.5-15.8
		c-17.5,4.1-35.3,6.8-52.7,11.2c-18.8,4.8-35.5,0.1-51.6-9c-7.3-4.1-9.7-9.7-8.7-18.2c3.5-29.1,6.2-58.2,9.3-87.4
		c6.3-58.2,12.7-116.5,19.1-174.7c0.4-4,0.9-8,1.5-11.9c1.4-7.9,4-9.5,10.6-5.6c9.9,5.7,19.9,10.8,31.2,12.7
		c6.8,1.2,12.4,4.8,17.2,9.6c6.1,6.2,12.2,12.3,17.9,18.8c22.8,26.1,45.8,52,67.9,78.6c15.9,19.1,35.5,29.6,60,31.6
		c8.6,0.7,17.3,1.1,25.9,1c10-0.1,20-0.4,29.9-1.3c17.2-1.6,27.7,6.6,34,21.8c8.2,19.8,12.6,40.6,17.5,61.3
		c1.4,5.8,2.5,11.7,4.2,17.5c3.3,11.5,5,12.6,17.1,8.9c13.3-4.1,26.5-8.8,39.6-13.5c15.7-5.6,31.1-5.3,46.9,0.2
		c15.2,5.2,29.3,12.6,43.5,19.9c7.3,3.7,10.4,8.8,10.5,17.4c0.5,27.3,2.1,54.6,3.1,81.8c1.2,33.5,13.9,63.4,29.7,92.1
		c8.4,15.3,17,15.4,27,1.5c7.6-10.4,12.3-21.8,13.2-35c1.7-23.9,3.8-47.8,9.5-71.2c3.5-14.2,7.9-28.1,14.2-41.4
		c12.5-26.9,33.7-40.1,62.9-41.8c27.6-1.6,54.5,1.7,81.1,8.7c7.1,1.9,14,4.3,21.1,6.1c24.9,6.3,39.5,23.4,48.7,46.2
		c5.8,14.4,7.7,29.6,9.1,44.8c0.5,5.3,0.1,10.6,0.1,16C3819.3,1608.2,3819.7,1608.2,3820,1608.3z"/>
	<text transform="matrix(0.7078 0.7064 -0.7062 0.708 3159.0117 1447.3)" class="st0 st1 st5">SANTAFÉ</text>
</g>
<g id="BOGRAFAELURIBE_1_">
	<path id="BOGRAFAELURIBE" d="M4281.5,2551.2c-56.2-6.5-109.2-12.6-162.1-18.7c-14.6-1.7-29.2-2.9-43.7-5.1
		c-7.9-1.2-14.4,1.9-21.1,4.7c-20.8,8.9-41.5,18.1-62.2,27.1c-26.2,11.5-52.7,22.4-78.5,34.6c-10.7,5.1-19.5,5.2-30-0.6
		c-21.5-11.9-43.8-22.6-65.6-34c-7.4-3.9-14.2-4.7-22.7-2.1c-42.6,13-85.5,25.1-128.3,37.6c-16.6,4.8-33.2,9.8-49.9,14.3
		c-9.8,2.6-11,2-15.9-6.9c-22.4-40.9-44.5-81.9-66.9-122.7c-3.1-5.6-2.3-9.8,1.3-14.5c9.8-12.6,19.1-25.7,29.2-38
		c7.1-8.7,10-18.1,10.9-29.2c2.6-32.5,6.1-65,9.2-97.4c1.7-17.9,3.9-35.8,4.9-53.7c0.6-10.3,5-17,13.2-23
		c29.1-21.1,57.8-42.8,86.7-64.3c31-23,62.1-46,93.1-69c3.7-2.8,7.4-5.7,11.4-8.1c2.3-1.4,5.2-1.3,7.5,0.4c2.1,1.6,4.2,3.3,6.1,5.1
		c45.1,40.5,90.1,81.1,135.5,121.3c7.5,6.7,9.2,13.2,7,22.7c-4.8,21.4-8.5,43.1-12.7,64.6c-0.8,3.9-1.5,7.9-2,11.8
		c-0.7,5.9,1.3,8.9,7.1,10.1c13.1,2.6,26.2,4.8,39.3,7.1c15.1,2.7,30.1,5.5,45.2,8.2c6.8,1.2,12.4,4,17,9.4
		c13.8,16.2,27.8,32.3,42.1,48.1c5.5,6,7,12.3,5.5,20.1c-2.2,11.1-3.9,22.3-5.6,33.5c-0.7,4.7,2,7.5,6.6,8.2
		c26.3,3.9,52.7,7.7,79,11.6c37.6,5.5,75.1,11,112.6,16.6c7.4,1.1,9.4,3.2,9.1,10.4c-0.7,16.6-1.5,33.3-2.7,49.9
		C4290.7,2550.5,4288.5,2551.9,4281.5,2551.2z"/>
	<text transform="matrix(0.9998 0 0 1 3624.0239 2414.1702)" class="st0 st1 st3">RAFAEL </text>
	<text transform="matrix(0.9998 0 0 1 3675.061 2520.842)" class="st0 st1 st3">URIBE</text>
</g>
<g id="BOGPUENTEARANDA_1_">
	<path id="BOGPUENTEARANDA" d="M3403.3,2289.6c-5.1,30.2-10.4,60.3-15.4,90.5c-4.8,28.9-9.4,57.8-14.1,86.7
		c-6.3,38.7-12.8,77.5-19.1,116.2c-4.4,26.9-8.6,53.9-13.1,80.8c-0.9,5.2-2.1,10.4-3.7,15.5c-1,3.1-3.8,3.3-6.5,2.1
		c-1.8-0.8-3.3-2.3-4.8-3.5c-59.9-46.6-119.6-93.5-179.8-139.8c-11.8-9-18.9-18.8-21.2-34.1c-3.8-24.9-10.3-49.5-15.7-74.2
		c-1.9-8.6-4.3-10.2-12.3-8.2c-45.2,11.3-90.3,22.7-135.5,33.9c-9.6,2.4-19.5,6.2-29.1,5.8c-9.9-0.4-17.5-9-25.9-14.3
		c-64-40.7-127.8-81.9-192-122.3c-21.8-13.7-40.3-30.5-56.4-50.2c-24-29.3-47.8-58.9-71.5-88.5c-9.6-11.9-18.8-24.2-28-36.4
		c-5.5-7.3-5.3-9.2,1.8-14.6c21.8-16.4,43.7-32.7,65.6-49.1c27.7-20.7,55.2-41.9,83.4-61.9c9.6-6.8,12.1-14.3,10.6-25.3
		c-5-36.9-9-74-14-110.9c-2.1-15.7-3.3-16.1,13.4-23.6c21.8-9.8,43.6-19.8,65.4-29.7c58.7-26.7,117.5-53.4,176.2-80.1
		c2.4-1.1,4.9-2.1,7.3-3.1c9.5-3.9,10.2-4,16.9,4c21.6,25.3,43,50.8,64.5,76.2c89.9,106.2,179.8,212.4,269.8,318.6
		c28,33,55.9,66.1,83.8,99.1c0.7,1.8,2.1,3,3.1,4.6l0,0C3407.2,2266.1,3405.9,2277.9,3403.3,2289.6z"/>
	<text transform="matrix(0.9998 0 0 1 2794.3149 2169.7249)" class="st0 st1 st3">PUENTE</text>
	<text transform="matrix(0.9998 0 0 1 2782.0122 2276.4006)" class="st0 st1 st3">ARANDA</text>
</g>
<g id="BOGMARTIRES_1_">
	<path id="BOGMARTIRES" d="M2968.4,1665c3.5-33.8,6.8-66.9,10.4-100c0.9-8,3.9-9.5,10.2-4.6c13.9,11,29,12.6,45.1,6.6
		c6.2-2.3,12.1-5.5,18.1-8.4c6-3,11.6-6.7,17.8-9.1c29.4-11.5,56.4-6.8,80.1,13.7c17.6,15.2,34.5,31.4,51.6,47.2
		c97.6,89.8,195.1,179.5,292.6,269.3c18.4,17,18,14.1-0.8,30.2c-56.3,47.9-112.6,95.8-168.9,143.8c-3.5,3-7.1,6.1-10.7,8.9
		c-3.2,2.5-6.3,1.6-8.9-1c-2.3-2.3-4.3-5.1-6.4-7.6c-76.8-92.9-153.6-185.8-230.4-278.8c-11-13.4-21.9-26.8-32.1-40.8
		c-13.1-18-28.9-33.1-46.6-46.2c-4.8-3.6-9.7-7-14.6-10.4C2970,1674.5,2966.7,1670.6,2968.4,1665z"/>
	<text transform="matrix(0.6589 0.7523 -0.7521 0.659 3029.209 1627.3813)" class="st0 st1 st6">MÁRTIRES</text>
</g>
<g id="BOGSANCRISTOBAL_1_">
	<path id="BOGSANCRISTOBAL" d="M4654.8,2109.8c-63.5-7.5-127-15.1-190.5-22.3c-28.1-3.2-25-3.1-25.7,22.5c-0.4,14-0.9,28-0.9,41.9
		c0,6.5-2.1,11.4-7.6,15.2c-23.5,16.4-46.8,33-70.3,49.4c-4.9,3.4-8.2,2.2-11.2-3.3c-0.3-0.6-0.5-1.2-0.8-1.8
		c-0.5-1.2-1.1-2.4-1.5-3.7c-3.4-11-11.1-14.5-22.3-16c-46.2-6.1-92.2-13.5-138.4-20.2c-18.4-2.7-37-4.7-55.4-7.7
		c-8.4-1.4-15.4-0.3-22.5,4.7c-16.4,11.4-33.1,22.4-50.1,32.9c-7.5,4.6-11.4,10.7-12.5,19.2c-1.7,12.5-3.6,25-5.9,37.5
		c-2.9,15.8-8.1,20-23,16.7c-12.9-2.9-25.5-7.4-38.1-11.6c-5.2-1.7-6.6-5.1-5.6-11.3c1.7-10.5,2.6-21.3,5.6-31.4
		c3.9-13.1,0.7-22.2-9.3-31.7c-29.4-28-57.8-57.1-86.6-85.8c-53.9-53.5-107.8-107-161.7-160.5c-27.4-27.2-54.8-54.5-82.2-81.8
		c-3.3-3.3-6.7-6.5-9.7-10.1c-2.5-3-2-6.2,1.5-8.4c4-2.5,8-4.7,12.1-7c63.6-36.4,127.1-72.7,190.7-109.1c1.2-0.7,2.4-1.2,3.5-1.9
		c20.5-12.5,19.8-8,23.1-35.3c4.3-35.7,9.9-71.2,14.4-106.9c1.1-8.9,4.9-14.1,13.2-17.9c44.1-20.4,87.9-41.3,131.7-62.5
		c7-3.4,13.9-4.2,21.3-3.5c24.5,2.4,49,4.8,73.6,7.3c11.9,1.2,23.8,3.2,35.8,3.7c9.4,0.4,16.3,3.8,22.5,10.6
		c25.3,27.4,51,54.5,76.5,81.7c1.4,1.5,2.7,3,3.8,4.6c1.1,1.6,2,3.6,0.4,5.4c-0.8,0.9-2.1,1.7-3.2,1.8c-4.7,0.2-9.3,0.2-14,0.2
		c-26.7,0-53.3,0.3-80-0.2c-9.3-0.2-15.4,2.7-18.5,11.5c-1.1,3.1-3,6-4,9.1c-1.3,3.7,0.3,6.6,3.9,7.8c6.3,2.2,12.7,4,19,6.1
		c4.4,1.5,8.8,3.1,13.2,4.6c5.1,1.7,7.4,5,7.1,10.4c-1.1,19.3-2,38.6-3,57.9c-1,18.6-1.9,37.2-2.9,55.9
		c-0.9,15.5-0.3,16.2,16.2,17.7c31.2,2.8,62.4,5.7,93.5,8.6c17.2,1.6,34.5,3.1,51.7,4.7c4.6,0.4,9.3,1.1,13.9,1.4
		c7.6,0.4,9.9-1.6,10.1-8.8c0.2-8-0.1-16,0.2-24c0.2-5.8,3.3-8.5,9.1-7.9c21.8,2.4,43.7,4.9,65.5,7.7
		c52.9,6.7,105.7,13.5,158.6,20.2c7.3,0.9,14.6,1.9,21.9,2.2c9.3,0.4,16.3,4.4,22.3,11.3c13.1,15.1,26.7,29.7,40.1,44.6
		c38.4,42.5,76.8,85,115.2,127.5c2.2,2.5,4.4,5,6.7,7.4c12.9,14.2,13.3,13.7-0.4,26.6c-20.4,19.2-40.6,38.5-60.9,57.8
		c-5.3,5-10.4,10.3-15.5,15.5c-9.6,7.8-16.8,18.3-27.9,24.4l0.1,0C4678.6,2113.9,4666.6,2112.2,4654.8,2109.8z"/>
	<text transform="matrix(0.9998 0 0 1 3820.9048 1980.8342)" class="st0 st1 st3">SAN CRISTOBAL</text>
</g>
<g id="BOGCANDELARIA_1_">
	<path id="BOGCANDELARIA" d="M3729.6,1351.2c-2,20-4.4,38.5-10.3,56.3c-3,8.8-7.1,17.2-13.1,24.6c-6.9,8.5-15.2,14.9-26,17.5
		c-12.9,3.1-25.8,7-38.9,8.8c-14.7,2.1-27.9,8.6-42.2,12.1c-5.4,1.3-9.4,5-12.9,9c-7.5,8.6-13.1,18.3-15.9,29.6
		c-3.7,15-5.4,30.2-5.2,45.5c0.2,20.8-2.7,41.2-5.9,61.6c-1,6.5-2.8,13.1-5.3,19.2c-4.5,11.4-13.7,12.7-21.3,3.6
		c-3.5-4.1-5.7-8.9-7.3-14.1c-3.3-10.3-4.4-20.8-4.4-31.5c0.1-34-3.6-67.8-5.9-101.7c-1.7-25.1-21.6-47.9-47.1-53.3
		c-32.5-6.9-64.9-14.8-98-19.2c-2.6-0.3-5.3-0.6-7.9-1.3c-10.9-2.7-14.4-6.5-15.5-17.8c-0.9-9.3-1.4-18.6-1.8-27.9
		c-1.9-37.2-3.8-74.5-5.7-111.8c-0.1-2-0.2-4-0.1-6c0.2-3.3,3.7-5.6,7-5.3c4.9,0.6,9.1,2.6,12.1,6.3c23.5,29.6,56.8,38.3,91.7,42.2
		c29.8,3.3,59.7,5.2,89.7,6.7c14.6,0.7,29.3-0.5,43.9-1.5c30.1-2.1,59.9-1,89.5,5c9.8,2,19.7,3.2,29.6,4.5c16,2.2,24,11.5,26.3,28
		C3729.2,1344.6,3729.3,1348.6,3729.6,1351.2z"/>
	<text transform="matrix(0.9998 0 0 1 3346.4224 1391.9436)" class="st0 st1 st7">CANDELARIA</text>
</g>
<g id="BOGUSME_1_">
	<path id="BOGUSME" d="M5154.5,2221.9c19.8,22.5,40,44.6,59.3,67.5c7.5,8.9,15.7,12.6,27.4,12.9c59.3,1.8,118.5,4.3,177.8,6.6
		c3.3,0.1,6.7,0.2,10,0.6c3.7,0.4,6,2.8,6.2,6.5c0.3,6,0.2,12,0.2,18c-0.4,31.3-0.8,62.6-1.2,93.9c0,2.7,0,5.3-0.3,8
		c-0.4,3.9-3,6-6.5,6.3c-4.6,0.5-9.3,0.4-14,0.4c-22,0-44,0-66,0c-4,0-8-0.1-12,0.3c-3.6,0.3-6.4,2.5-6.9,6.1
		c-1,7.2-1.7,14.5-2.2,21.8c-2.9,41.2-5.6,82.4-8.6,123.6c-1.4,19.6-0.7,19.6-21.2,19.2c-20-0.4-40-0.9-60-0.6
		c-25,0.3-45.3-8.9-61.6-27.6c-5.2-6-10.9-11.7-16.8-17.1c-6-5.4-13.2-6.3-20.5-2.8c-30.1,14.5-59,31-84.3,53.1
		c-15.1,13.1-23.3,30.6-27.4,50c-3.3,15.6-5.8,31.5-6.3,47.5c-0.3,8.1-1.7,15.8-4.7,23.4c-2.5,6.5-6.8,11.3-12.7,14.9
		c-6.8,4.3-13.4,5.1-20.5,0.5c-14-9-28.2-17.7-42.1-26.8c-6.9-4.5-13.6-7.4-22.4-5.8c-11.5,2.1-22.4-0.8-32.7-6.4
		c-21.7-12-45.3-19.3-68.3-27.8c-5.7-2.1-11.6-2.8-17.6-2.9c-21.9-0.2-44,1.3-65.6-4.4c-8.1-2.2-13.8,0.6-18.6,7.6
		c-5.6,8.2-12,16-18.7,23.3c-4.9,5.3-10.8,9.8-16.6,14.2c-7.6,5.8-16,6-24.6,2.4c-2.5-1-5-2-7.2-3.4c-31.1-18.8-59.5-40.7-78.4-72.5
		c-9.5-16-18.1-32.6-26-49.5c-4.4-9.5-10.6-14.3-20.7-16.3c-56.8-11.2-113.6-22.8-170.3-34.3c-2-0.4-3.9-0.8-5.8-1.3
		c-7.7-2.2-9.7-4.2-9.8-12.7c-0.5-22.6-0.6-45.3-0.9-67.9c-0.1-6,0-12-0.5-18c-0.6-7.2-2.4-9.1-9.8-10.3c-23-3.8-46-7.6-69-11.3
		c-34.8-5.6-69.7-11.3-104.6-16.7c-5.7-0.9-10.1-3-13.4-7.6c-19.9-27.5-39.9-55-59.5-82.7c-5.9-8.3-8.7-17.9-10.4-27.9
		c-3.1-18.2,0.8-34.1,14.5-47.5c17.8-17.4,38.2-31,58.9-44.5c4.7-3.1,9.9-3.4,15.4-2.5c16.4,2.8,32.9,5.3,49.3,8.2
		c37.4,6.6,74.7,13.7,112.1,19.7c9.4,1.5,16.2,4.9,21.4,12.6c2.2,3.3,4.9,6.4,7.7,9.2c2.6,2.6,5.8,3,9.1,0.9c1.7-1.1,3.3-2.2,5-3.3
		c34-22.2,67.9-44.7,102.2-66.4c9.1-5.7,13.1-12.3,11.9-22.8c-0.8-7.2-0.3-14.6-0.1-22c0.2-4.7,2.9-6.9,7.9-6.8
		c3.3,0.1,6.7,0.4,10,0.8c58.9,6.8,117.8,13.7,176.7,20.5c8.6,1,17.4,0.9,25.8,2.5c8.9,1.7,15.2-0.7,21.4-7.1
		c19-19.7,38.4-38.9,57.6-58.2c18.8-18.9,37.7-37.7,56.2-56.9c5.6-5.8,11.4-8.2,19.5-7.4c33.2,3.2,66.3,6,99.5,8.9
		c8.6,0.8,17.3,1.5,25.9,2.6c9,1.2,14.7-1.3,18.8-10.4c9.5-21.3,20.1-42,30.5-62.9c3.8-7.6,5.2-17.3,13.1-21.9
		c7.2-4.2,15.6,0,23.5,0c7.3,0,14.6,0.5,22,1c6.1,0.4,10.2-2.1,12.3-7.9c3-8.1,6.1-16.2,9.2-24.3c2.5-6.4,6.9-9.1,14-8.4
		c14.6,1.5,29.2,2.6,43.8,3.9c20.6,1.8,41.2,3.5,61.7,5.6c9.6,1,11.4,3.2,10.8,12.9c-1.5,25.3-3.2,50.5-4.9,75.8
		c-2.5,37.2-5,74.4-7.6,111.6c-0.2,2.7-0.3,5.3-0.7,7.9c-0.8,4.5-3.7,6.9-8.1,7.4c-2.6,0.3-5.3,0.3-8,0.2
		c-32.6-0.3-65.3-0.6-97.9-1.1c-10-0.1-11-1.3-11.5-11.8c-0.5-10.6-0.7-21.3-1.1-32c-0.1-2.8-1.1-5.7-3.7-6.6
		c-8.5-2.6-17-2.1-25.3,1c-2.6,1-3.1,4.1-3.3,6.8c-0.8,10.6-1.7,21.2-2.5,31.9c-0.2,2.7-0.4,5.3-0.7,8c-1.4,14.7-1.4,14.6-17.2,14.1
		c-7.9-0.3-15.9-2-23.8,0.5c-9.6,22.6-7.6,47.5-14,70.7c-2.5,9,3.5,11.3,11.5,11c29-1.1,58,0.9,87.1-1.3
		C5120.6,2217.3,5138.1,2214.2,5154.5,2221.9z"/>
	<text transform="matrix(0.9998 0 0 1 4558.0552 2458.6116)" class="st0 st1 st2">USME</text>
</g>
<g id="BOGSUMAPAZ_1_">
	<path id="BOGSUMAPAZ" d="M5547.1,1870.3c0,4-0.1,7.9-0.1,11.9c-4.9,37.6-10.5,75.2-14.6,112.9c-4.7,43-11.7,85.8-14.1,129
		c-2.5,45.2-16.1,87.5-33.6,128.8c-1,2.4-2.4,4.8-3.7,7.1c-1.8,3.2-4.5,4.9-8.1,4.7c-8-0.5-16-0.9-23.9-1.6
		c-61-5.4-122.1-11-183.1-16.5c-3.3-0.3-6.6-0.5-9.9-1c-8.5-1.2-10.5-3.4-9.9-11.5c0.6-8.6,1.4-17.3,2.4-25.9
		c6.8-56.8,13.9-113.6,20.6-170.5c6.3-53.5,12.2-107.1,18.2-160.7c1.1-10.2,2.1-11.5,11.9-12.4c18.6-1.7,37.2-3.3,55.8-4.6
		c30.6-2.2,61.1-4.1,91.7-6.2c17.2,2.5,34.2,0,51.3-1.3c13.8-1.1,27.7-2,41.5-2.6c6.2-0.3,7.4,1.6,7.5,8.6
		C5547,1862.4,5547,1866.4,5547.1,1870.3z"/>
	<text transform="matrix(0.6777 -0.7351 0.7351 0.6779 5291.5811 2201.0208)" class="st0 st1 st8">SUMAPAZ</text>
</g>
<g id="BOGANTONIO_1_">
	<path id="BOGANTONIO" d="M3443.9,2239.2c1.6-5.9-2.3-13.8-7.8-21.9c-27-39.6-53.6-79.5-80.3-119.3c-2.2-3.3-4.5-6.6-6.7-9.9
		c-2.6-3.9-2.2-7.6,1-10.8c3.3-3.3,6.9-6.2,10.5-9.3c72.9-62.4,145.7-124.7,218.6-187.1c2.5-2.2,5-4.4,7.6-6.5
		c3-2.4,6.2-2.2,9.1,0.2c2.6,2.1,4.9,4.5,7.3,6.8c53.2,53.2,106.4,106.4,159.7,159.6c1.9,1.9,3.9,3.6,5.6,5.7
		c2.5,2.9,2.9,6.1-0.3,8.7c-5.7,4.6-11.6,8.9-17.5,13.2c-64.2,46.4-128.4,92.8-192.7,139.3c-3.2,2.3-6.5,4.7-9.7,7
		c-4.7,3.3-7,7.9-7.5,13.5c-0.4,4.6-0.9,9.3-1.3,13.9c-4.4,56.4-9.1,112.8-13.1,169.3c-0.9,13.1-4.7,24.3-13,34.7
		c-17.4,21.9-34,44.4-51,66.6c-8.2,10.7-9,11.1-21.7,5.5c-29.4-12.9-25.9-5.8-22.2-38.7c5-44.3,9.1-88.7,13.7-133.1
		c2.8-26.5,5.8-52.9,8.7-79.4C3441.6,2259.2,3442.5,2251.2,3443.9,2239.2z"/>
	<text transform="matrix(0.9666 -0.2558 0.2558 0.9667 3388.3428 2091.4709)" class="st0 st1 st9">ANTONIO</text>
	<text transform="matrix(0.9666 -0.2558 0.2558 0.9667 3429.6992 2163.2849)" class="st0 st1 st9">NARIÑO</text>
</g>
</svg>
